<svg width="31" height="31" viewBox="0 0 31 31" fill="none" xmlns="http://www.w3.org/2000/svg">
<path d="M14.2083 25.8333C13.6992 25.8348 13.1949 25.7352 12.7247 25.5403C12.2544 25.3454 11.8275 25.0591 11.4687 24.698L6.302 19.5313C5.56963 18.8002 5.16663 17.8263 5.16663 16.7917C5.16663 15.7571 5.56963 14.7831 6.302 14.0508C7.76546 12.5873 10.3178 12.5873 11.7813 14.0508L13.3158 15.5853L17.2799 8.45139C17.6516 7.78089 18.2139 7.23577 18.8956 6.88505C19.5773 6.53433 20.3478 6.39377 21.1094 6.48118C21.8711 6.56859 22.5896 6.88003 23.1742 7.37607C23.7587 7.87211 24.1829 8.53045 24.3931 9.26772C24.5346 9.75703 24.5775 10.2696 24.5192 10.7756C24.4609 11.2816 24.3025 11.771 24.0534 12.2153L17.595 23.8403C17.2579 24.4429 16.7666 24.9451 16.1715 25.2953C15.5764 25.6455 14.8988 25.8312 14.2083 25.8333ZM9.04163 15.5C8.69546 15.5 8.37254 15.6343 8.12842 15.8785C7.88429 16.1226 7.74996 16.4455 7.74996 16.7917C7.74996 17.1378 7.88429 17.4608 8.12842 17.7049L13.2951 22.8716C13.4367 23.0124 13.6089 23.1185 13.7983 23.1817C13.9878 23.2449 14.1892 23.2634 14.387 23.2357C14.5848 23.2081 14.7735 23.1351 14.9383 23.0224C15.1031 22.9097 15.2397 22.7603 15.3372 22.5861L21.7955 10.9611C21.8785 10.8131 21.9312 10.6502 21.9507 10.4816C21.9702 10.3131 21.9561 10.1424 21.9092 9.97943C21.8629 9.81573 21.7845 9.66289 21.6784 9.52983C21.5724 9.39677 21.441 9.28615 21.2918 9.20443C20.9917 9.04425 20.6411 9.00698 20.314 9.1005C19.987 9.19401 19.7091 9.41099 19.539 9.70559L13.9112 19.8336L9.95613 15.8785C9.83623 15.7581 9.69369 15.6627 9.53673 15.5978C9.37977 15.5328 9.2115 15.4996 9.04163 15.5Z" fill="#30D755" fill-opacity="0.8"/>
</svg>
