<svg width="8" height="4" viewBox="0 0 8 4" fill="none" xmlns="http://www.w3.org/2000/svg">
<path d="M3.99373 3.99373C3.86044 3.99399 3.73128 3.94757 3.62865 3.86253L0.206069 1.01038C0.0895779 0.913552 0.0163207 0.774417 0.00241378 0.623581C-0.0114932 0.472744 0.0350893 0.32256 0.131913 0.206069C0.228737 0.0895776 0.367872 0.0163207 0.518708 0.00241379C0.669545 -0.0114931 0.819728 0.035089 0.93622 0.131913L3.99373 2.68744L7.05123 0.223182C7.10958 0.175799 7.17672 0.140414 7.24879 0.119062C7.32085 0.0977098 7.39643 0.0908111 7.47117 0.0987624C7.54592 0.106714 7.61835 0.129358 7.68431 0.165394C7.75028 0.201431 7.80847 0.250148 7.85554 0.308747C7.90778 0.367399 7.94734 0.436208 7.97175 0.510862C7.99616 0.585517 8.00489 0.664407 7.9974 0.742593C7.9899 0.820778 7.96634 0.896572 7.92818 0.965227C7.89003 1.03388 7.83811 1.09392 7.77568 1.14157L4.3531 3.89675C4.24752 3.96835 4.12099 4.00249 3.99373 3.99373Z" fill="#F9F9F9" fill-opacity="0.7"/>
</svg>
