<svg width="8" height="4" viewBox="0 0 8 4" fill="none" xmlns="http://www.w3.org/2000/svg">
<path d="M3.99373 3.99376C3.86044 3.99402 3.73128 3.9476 3.62865 3.86256L0.206069 1.01041C0.0895779 0.913583 0.0163207 0.774448 0.00241378 0.623611C-0.0114932 0.472774 0.0350893 0.322591 0.131913 0.2061C0.228737 0.0896081 0.367872 0.0163512 0.518708 0.0024443C0.669545 -0.0114626 0.819728 0.0351195 0.93622 0.131944L3.99373 2.68747L7.05123 0.223213C7.10958 0.175829 7.17672 0.140445 7.24879 0.119092C7.32085 0.0977403 7.39643 0.0908416 7.47117 0.098793C7.54592 0.106744 7.61835 0.129389 7.68431 0.165425C7.75028 0.201461 7.80847 0.250179 7.85554 0.308777C7.90778 0.36743 7.94734 0.436239 7.97175 0.510893C7.99616 0.585547 8.00489 0.664438 7.9974 0.742623C7.9899 0.820808 7.96634 0.896602 7.92818 0.965257C7.89003 1.03391 7.83811 1.09395 7.77568 1.14161L4.3531 3.89678C4.24752 3.96838 4.12099 4.00252 3.99373 3.99376Z" fill="#1E1E1E" fill-opacity="0.7"/>
</svg>
