<svg width="111" height="33" viewBox="0 0 111 33" fill="none" xmlns="http://www.w3.org/2000/svg">
<path d="M11.4873 12.9461L15.8658 8.56763V22.068H11.4873H20.2443" stroke="#2BC161" stroke-width="2.18924" stroke-linecap="round" stroke-linejoin="round"/>
<path d="M49.6574 24.8086C48.6288 24.8086 47.7455 24.6331 47.0074 24.2822C46.2693 23.9192 45.7005 23.3686 45.3012 22.6305C44.9019 21.8803 44.6781 20.9425 44.6296 19.8172C44.6175 19.2847 44.6115 18.7765 44.6115 18.2925C44.6115 17.7964 44.6175 17.2821 44.6296 16.7497C44.6781 15.6365 44.908 14.7108 45.3194 13.9727C45.7429 13.2224 46.3237 12.6658 47.0618 12.3028C47.8121 11.9277 48.6772 11.7401 49.6574 11.7401C50.6496 11.7401 51.5148 11.9277 52.2529 12.3028C53.0031 12.6658 53.59 13.2224 54.0135 13.9727C54.437 14.7108 54.6669 15.6365 54.7032 16.7497C54.7274 17.2821 54.7395 17.7964 54.7395 18.2925C54.7395 18.7765 54.7274 19.2847 54.7032 19.8172C54.6669 20.9425 54.4431 21.8803 54.0317 22.6305C53.6324 23.3686 53.0636 23.9192 52.3255 24.2822C51.5874 24.6331 50.698 24.8086 49.6574 24.8086ZM49.6574 23.2658C50.5891 23.2658 51.3454 22.9875 51.9262 22.4308C52.5191 21.8742 52.8398 20.9727 52.8882 19.7264C52.9124 19.1819 52.9245 18.6979 52.9245 18.2744C52.9245 17.8387 52.9124 17.3547 52.8882 16.8223C52.864 15.9874 52.7067 15.3098 52.4163 14.7894C52.138 14.2691 51.7628 13.888 51.2909 13.6459C50.819 13.4039 50.2745 13.2829 49.6574 13.2829C49.0645 13.2829 48.532 13.4039 48.0601 13.6459C47.5882 13.888 47.207 14.2691 46.9166 14.7894C46.6383 15.3098 46.481 15.9874 46.4447 16.8223C46.4326 17.3547 46.4266 17.8387 46.4266 18.2744C46.4266 18.6979 46.4326 19.1819 46.4447 19.7264C46.4931 20.9727 46.8138 21.8742 47.4067 22.4308C47.9996 22.9875 48.7498 23.2658 49.6574 23.2658ZM57.4396 24.6271C57.3065 24.6271 57.2036 24.5908 57.131 24.5182C57.0584 24.4335 57.0221 24.3306 57.0221 24.2096V12.3573C57.0221 12.2241 57.0584 12.1213 57.131 12.0487C57.2036 11.964 57.3065 11.9216 57.4396 11.9216H58.2745C58.4197 11.9216 58.5286 11.9579 58.6012 12.0305C58.6738 12.091 58.7162 12.1394 58.7283 12.1757L64.7543 21.4326V12.3573C64.7543 12.2241 64.7906 12.1213 64.8632 12.0487C64.9358 11.964 65.0387 11.9216 65.1718 11.9216H66.043C66.1761 11.9216 66.2789 11.964 66.3515 12.0487C66.4363 12.1213 66.4786 12.2241 66.4786 12.3573V24.1915C66.4786 24.3125 66.4363 24.4153 66.3515 24.5C66.2789 24.5847 66.1821 24.6271 66.0611 24.6271H65.1899C65.0568 24.6271 64.954 24.5908 64.8813 24.5182C64.8208 24.4456 64.7785 24.3972 64.7543 24.373L58.7464 15.2069V24.2096C58.7464 24.3306 58.7041 24.4335 58.6194 24.5182C58.5468 24.5908 58.4439 24.6271 58.3108 24.6271H57.4396ZM69.6792 24.6271C69.5461 24.6271 69.4433 24.5908 69.3706 24.5182C69.298 24.4335 69.2617 24.3306 69.2617 24.2096V12.3573C69.2617 12.2241 69.298 12.1213 69.3706 12.0487C69.4433 11.964 69.5461 11.9216 69.6792 11.9216H77.1754C77.3085 11.9216 77.4114 11.964 77.484 12.0487C77.5566 12.1213 77.5929 12.2241 77.5929 12.3573V13.047C77.5929 13.1801 77.5566 13.2829 77.484 13.3555C77.4114 13.4281 77.3085 13.4644 77.1754 13.4644H71.0042V17.4394H76.7761C76.9092 17.4394 77.0121 17.4818 77.0847 17.5665C77.1573 17.6391 77.1936 17.7419 77.1936 17.875V18.5466C77.1936 18.6676 77.1573 18.7705 77.0847 18.8552C77.0121 18.9278 76.9092 18.9641 76.7761 18.9641H71.0042V23.0843H77.3206C77.4537 23.0843 77.5566 23.1206 77.6292 23.1932C77.7018 23.2658 77.7381 23.3686 77.7381 23.5017V24.2096C77.7381 24.3306 77.7018 24.4335 77.6292 24.5182C77.5566 24.5908 77.4537 24.6271 77.3206 24.6271H69.6792ZM80.3236 24.6271C80.1905 24.6271 80.0876 24.5908 80.015 24.5182C79.9424 24.4335 79.9061 24.3306 79.9061 24.2096V12.3573C79.9061 12.2241 79.9424 12.1213 80.015 12.0487C80.0876 11.964 80.1905 11.9216 80.3236 11.9216H84.9338C85.8292 11.9216 86.6037 12.0668 87.2571 12.3573C87.9226 12.6477 88.4369 13.0833 88.7999 13.6641C89.1629 14.2328 89.3444 14.9467 89.3444 15.8059C89.3444 16.665 89.1629 17.3789 88.7999 17.9476C88.4369 18.5164 87.9226 18.9459 87.2571 19.2363C86.6037 19.5267 85.8292 19.672 84.9338 19.672H81.7212V24.2096C81.7212 24.3306 81.6788 24.4335 81.5941 24.5182C81.5215 24.5908 81.4186 24.6271 81.2855 24.6271H80.3236ZM81.703 18.1473H84.8431C85.7385 18.1473 86.4101 17.9476 86.8578 17.5483C87.3055 17.149 87.5294 16.5682 87.5294 15.8059C87.5294 15.0556 87.3115 14.4748 86.8759 14.0634C86.4403 13.652 85.7627 13.4463 84.8431 13.4463H81.703V18.1473ZM89.6619 24.6271C89.5651 24.6271 89.4804 24.5908 89.4078 24.5182C89.3352 24.4456 89.2989 24.3609 89.2989 24.2641C89.2989 24.2036 89.3049 24.137 89.317 24.0644L93.8184 12.321C93.8668 12.1999 93.9334 12.1031 94.0181 12.0305C94.1028 11.9579 94.2298 11.9216 94.3992 11.9216H95.6335C95.7908 11.9216 95.9118 11.9579 95.9965 12.0305C96.0933 12.1031 96.1659 12.1999 96.2143 12.321L100.697 24.0644C100.722 24.137 100.734 24.2036 100.734 24.2641C100.734 24.3609 100.697 24.4456 100.625 24.5182C100.552 24.5908 100.468 24.6271 100.371 24.6271H99.4451C99.2999 24.6271 99.191 24.5908 99.1184 24.5182C99.0579 24.4456 99.0155 24.379 98.9913 24.3185L97.993 21.7411H92.0396L91.0414 24.3185C91.0293 24.379 90.9869 24.4456 90.9143 24.5182C90.8417 24.5908 90.7328 24.6271 90.5876 24.6271H89.6619ZM92.566 20.1802H97.4667L95.0163 13.7367L92.566 20.1802ZM104.882 24.6271C104.761 24.6271 104.658 24.5908 104.574 24.5182C104.501 24.4335 104.465 24.3306 104.465 24.2096V19.9261L100.091 12.5206C100.078 12.4843 100.066 12.448 100.054 12.4117C100.042 12.3754 100.036 12.3331 100.036 12.2847C100.036 12.1878 100.072 12.1031 100.145 12.0305C100.218 11.9579 100.302 11.9216 100.399 11.9216H101.343C101.452 11.9216 101.549 11.9519 101.633 12.0124C101.718 12.0608 101.779 12.1334 101.815 12.2302L105.354 18.111L108.894 12.2302C108.954 12.1334 109.021 12.0608 109.093 12.0124C109.178 11.9519 109.275 11.9216 109.384 11.9216H110.309C110.418 11.9216 110.509 11.9579 110.582 12.0305C110.654 12.1031 110.691 12.1878 110.691 12.2847C110.691 12.3331 110.684 12.3754 110.672 12.4117C110.66 12.448 110.642 12.4843 110.618 12.5206L106.262 19.9261V24.2096C106.262 24.3306 106.219 24.4335 106.135 24.5182C106.062 24.5908 105.959 24.6271 105.826 24.6271H104.882Z" fill="#F9F9F9" fill-opacity="0.9"/>
<path d="M15.6467 30.898C8.11007 30.898 2.00042 24.429 2.00042 16.449C2.00042 8.46904 8.11007 2 15.6467 2C23.1833 2 29.293 8.46904 29.293 16.449C29.293 24.429 23.1833 30.898 15.6467 30.898Z" stroke="#2BC161" stroke-width="3.21089" stroke-linecap="round" stroke-linejoin="round"/>
<path d="M16.4492 2C22.3364 2 34.1091 3.4449 34.1091 16.449C34.1091 29.4531 22.3364 30.898 16.4492 30.898" stroke="#2BC161" stroke-width="3.21089"/>
</svg>
