<svg width="19" height="22" viewBox="0 0 19 22" fill="none" xmlns="http://www.w3.org/2000/svg">
<path d="M9.5 0.792114C9.81494 0.792114 10.117 0.9282 10.3397 1.17043C10.5624 1.41267 10.6875 1.74121 10.6875 2.08378V9.83378H17.8125C18.1274 9.83378 18.4295 9.96986 18.6522 10.2121C18.8749 10.4543 19 10.7829 19 11.1254C19 11.468 18.8749 11.7966 18.6522 12.0388C18.4295 12.281 18.1274 12.4171 17.8125 12.4171H10.6875V20.1671C10.6875 20.5097 10.5624 20.8382 10.3397 21.0805C10.117 21.3227 9.81494 21.4588 9.5 21.4588C9.18506 21.4588 8.88301 21.3227 8.66031 21.0805C8.43761 20.8382 8.3125 20.5097 8.3125 20.1671V12.4171H1.1875C0.872555 12.4171 0.57051 12.281 0.347811 12.0388C0.125111 11.7966 0 11.468 0 11.1254C0 10.7829 0.125111 10.4543 0.347811 10.2121C0.57051 9.96986 0.872555 9.83378 1.1875 9.83378H8.3125V2.08378C8.3125 1.74121 8.43761 1.41267 8.66031 1.17043C8.88301 0.9282 9.18506 0.792114 9.5 0.792114V0.792114Z" fill="#30D755"/>
</svg>
